#!OML:ASF X:\für Bonn\!DataBase\2005_08_12_Daniel\c3d\Daniel.ASF
:FULLY-SPECIFIED
:DEGREES
3557
root 1.35989 17.5512 0.211501 -1042.52 -85.7866 -43.6968
lowerback 8.02488 -1.10184 2.98234
upperback -0.277592 -1.22768 -0.737805
thorax -4.87361 -0.694052 -2.29586
lowerneck 0.987928 1.89555 -2.95519
upperneck 8.85414 2.38322 0.948149
head 2.58149 1.0599 0.849389
rclavicle -1.23246e-014 9.14409e-015
rhumerus -18.2114 19.8831 -9.24918
rradius 20.9173
rwrist -26.3501
rhand -18.1646 -0.778941
rfingers 7.12502
rthumb 8.11147 -30.6033
lclavicle -1.23246e-014 9.14409e-015
lhumerus -22.4635 10.0387 -5.49056
lradius 17.9319
lwrist 5.91063
lhand -22.1744 13.8286
lfingers 7.12502
lthumb 4.24037 43.7662
rfemur 3.74836 16.9434 21.5621
rtibia 21.8164
rfoot -25.6314 -20.5105
rtoes -15.2936
lfemur -3.19582 -12.3183 -16.6402
ltibia 35.6295
lfoot -26.8689 11.3559
ltoes -15.4144
3558
root 1.36137 17.5512 0.210383 -1042.95 -85.7832 -43.2828
lowerback 8.03143 -1.10854 2.96234
upperback -0.270197 -1.23878 -0.743952
thorax -4.86995 -0.699007 -2.28959
lowerneck 1.02131 1.89689 -2.92674
upperneck 8.84378 2.38374 0.940512
head 2.57227 1.06082 0.841446
rclavicle 8.22472e-015 -2.38542e-015
rhumerus -18.2 19.7809 -9.2713
rradius 20.8935
rwrist -26.2218
rhand -18.1415 -0.82226
rfingers 7.12502
rthumb 8.13375 -30.6457
lclavicle 8.22472e-015 -2.38542e-015
lhumerus -22.4564 10.1246 -5.50894
lradius 17.9285
lwrist 5.74836
lhand -22.0933 13.7991
lfingers 7.12502
lthumb 4.31867 43.735
rfemur 3.75458 16.9143 21.5466
rtibia 21.826
rfoot -25.6131 -20.5268
rtoes -15.3575
lfemur -3.18816 -12.3336 -16.6621
ltibia 35.625
lfoot -26.8586 11.3499
ltoes -15.4147
3559
root 1.36333 17.5512 0.209754 -1043.11 -85.771 -43.127
lowerback 8.04358 -1.11263 2.97824
upperback -0.269429 -1.24286 -0.75359
thorax -4.87685 -0.701649 -2.30793
lowerneck 1.0891 1.8965 -2.84434
upperneck 8.80978 2.38272 0.896469
head 2.54979 1.06191 0.811806
rclavicle -4.42296e-015 -5.1684e-015
rhumerus -18.2032 19.7565 -9.29876
rradius 20.8778
rwrist -26.2031
rhand -18.1291 -0.846966
rfingers 7.12502
rthumb 8.14572 -30.67
lclavicle -4.42296e-015 -5.1684e-015
lhumerus -22.4248 10.0075 -5.48078
lradius 17.9294
lwrist 5.79249
lhand -22.0729 13.769
lfingers 7.12502
lthumb 4.33834 43.7045
rfemur 3.75566 16.9055 21.5495
rtibia 21.8358
rfoot -25.6165 -20.5335
rtoes -15.2756
lfemur -3.19104 -12.3141 -16.6522
ltibia 35.6222
lfoot -26.8415 11.3143
ltoes -15.4181
3560
root 1.36494 17.5516 0.208315 -1043.19 -85.7655 -43.0529
lowerback 8.03654 -1.1174 2.96745
upperback -0.261072 -1.24973 -0.736125
thorax -4.86391 -0.70428 -2.28295
lowerneck 1.11378 1.89988 -2.86392
upperneck 8.78293 2.3878 0.883074
head 2.53622 1.06376 0.810281
rclavicle 7.45443e-017 -4.77083e-015
rhumerus -18.123 19.5437 -9.26899
rradius 20.8166
rwrist -25.9975
rhand -18.0725 -0.883312
rfingers 7.12502
rthumb 8.20037 -30.7042
lclavicle 7.45443e-017 -4.77083e-015
lhumerus -22.4385 10.152 -5.48499
lradius 17.928
lwrist 5.65547
lhand -22.0437 13.7633
lfingers 7.12502
lthumb 4.36656 43.6983
rfemur 3.75092 16.9372 21.5637
rtibia 21.8425
rfoot -25.6297 -20.5711
rtoes -15.2725
lfemur -3.20792 -12.2944 -16.6425
ltibia 35.6217
lfoot -26.8145 11.2952
ltoes -15.4805
3561
root 1.36678 17.552 0.207728 -1043.35 -85.7516 -42.8899
lowerback 8.03569 -1.12392 2.97499
upperback -0.26048 -1.25784 -0.738076
thorax -4.86355 -0.708493 -2.28825
lowerneck 1.15773 1.89839 -2.81516
upperneck 8.75713 2.38585 0.851697
head 2.52044 1.06368 0.79093
rclavicle -5.46658e-016 1.98785e-015
rhumerus -18.0936 19.4501 -9.28755
rradius 20.7723
rwrist -25.8463
rhand -18.0642 -0.906109
rfingers 7.12502
rthumb 8.20841 -30.7267
lclavicle -5.46658e-016 1.98785e-015
lhumerus -22.4362 10.2417 -5.50493
lradius 17.9295
lwrist 5.48432
lhand -22.0308 13.7006
lfingers 7.12502
lthumb 4.379 43.6353
rfemur 3.74255 16.9039 21.5625
rtibia 21.8434
rfoot -25.5664 -20.5911
rtoes -15.3187
lfemur -3.21832 -12.3171 -16.6423
ltibia 35.6225
lfoot -26.8059 11.2985
ltoes -15.4793
3562
root 1.36832 17.5519 0.207248 -1043.44 -85.745 -42.8098
lowerback 8.04079 -1.12797 2.98441
upperback -0.25467 -1.26245 -0.741121
thorax -4.86094 -0.710962 -2.29613
lowerneck 1.21348 1.90703 -2.76526
upperneck 8.73358 2.39604 0.832463
head 2.50295 1.06986 0.775331
rclavicle -9.19379e-016 -8.34896e-015
rhumerus -18.0548 19.2563 -9.28703
rradius 20.7319
rwrist -25.6473
rhand -18.0604 -0.94152
rfingers 7.12502
rthumb 8.21208 -30.7619
lclavicle -9.19379e-016 -8.34896e-015
lhumerus -22.4291 10.0611 -5.45845
lradius 17.9475
lwrist 5.64511
lhand -22.0768 13.661
lfingers 7.12502
lthumb 4.33462 43.5967
rfemur 3.74776 16.8981 21.565
rtibia 21.8462
rfoot -25.5778 -20.595
rtoes -15.3214
lfemur -3.2183 -12.3003 -16.6354
ltibia 35.6233
lfoot -26.7947 11.2728
ltoes -15.4815
3563
root 1.36971 17.5531 0.20634 -1044.01 -85.7412 -42.2319
lowerback 8.0299 -1.13066 2.95937
upperback -0.249948 -1.26912 -0.747295
thorax -4.84984 -0.713514 -2.28783
lowerneck 1.23801 1.90145 -2.74518
upperneck 8.72133 2.38806 0.824044
head 2.49485 1.06638 0.768588
rclavicle -7.25564e-015 8.74653e-015
rhumerus -18.0413 19.19 -9.30217
rradius 20.6955
rwrist -25.5576
rhand -18.1125 -0.951448
rfingers 7.12502
rthumb 8.16179 -30.7738
lclavicle -7.25564e-015 8.74653e-015
lhumerus -22.4145 10.0956 -5.43599
lradius 17.9677
lwrist 5.65393
lhand -22.0917 13.6657
lfingers 7.12502
lthumb 4.32021 43.6017
rfemur 3.74138 16.901 21.5382
rtibia 21.8507
rfoot -25.5923 -20.6211
rtoes -15.3132
lfemur -3.23529 -12.3246 -16.6646
ltibia 35.6221
lfoot -26.7826 11.2692
ltoes -15.4798
3564
root 1.37101 17.553 0.205356 -1044.09 -85.7464 -42.1632
lowerback 8.03508 -1.138 2.94509
upperback -0.249142 -1.27958 -0.736177
thorax -4.85197 -0.718208 -2.26683
lowerneck 1.28559 1.91122 -2.71573
upperneck 8.70598 2.40225 0.77443
head 2.48166 1.07291 0.747085
rclavicle -2.80783e-015 -5.96354e-015
rhumerus -17.9902 19.2532 -9.31072
rradius 20.6957
rwrist -25.616
rhand -18.1776 -1.00515
rfingers 7.12502
rthumb 8.09895 -30.83
lclavicle -2.80783e-015 -5.96354e-015
lhumerus -22.435 10.1936 -5.44204
lradius 17.9531
lwrist 5.54164
lhand -22.1412 13.5785
lfingers 7.12502
lthumb 4.27242 43.5154
rfemur 3.74267 16.8996 21.5329
rtibia 21.8531
rfoot -25.5898 -20.6198
rtoes -15.3137
lfemur -3.23881 -12.2665 -16.6596
ltibia 35.6229
lfoot -26.7623 11.2391
ltoes -15.5471
3565
root 1.37243 17.5533 0.204918 -1044.17 -85.7381 -42.0762
lowerback 8.03621 -1.14296 2.96904
upperback -0.247419 -1.28465 -0.751341
thorax -4.85207 -0.721501 -2.2955
lowerneck 1.33756 1.91188 -2.62531
upperneck 8.67165 2.40384 0.727045
head 2.46216 1.0756 0.715456
rclavicle -8.62228e-015 8.34896e-015
rhumerus -17.9394 18.9333 -9.3262
rradius 20.6124
rwrist -25.2321
rhand -18.1659 -0.991389
rfingers 7.12502
rthumb 8.11024 -30.8158
lclavicle -8.62228e-015 8.34896e-015
lhumerus -22.419 10.1193 -5.42617
lradius 17.964
lwrist 5.59397
lhand -22.2234 13.5542
lfingers 7.12502
lthumb 4.19307 43.4927
rfemur 3.73346 16.8666 21.5305
rtibia 21.8557
rfoot -25.557 -20.6252
rtoes -15.381
lfemur -3.24394 -12.2924 -16.6625
ltibia 35.6224
lfoot -26.7571 11.253
ltoes -15.5448
3566
root 1.37428 17.5536 0.204629 -1044.27 -85.725 -41.9822
lowerback 8.03114 -1.14375 2.98507
upperback -0.245967 -1.28426 -0.749478
thorax -4.848 -0.721606 -2.30272
lowerneck 1.39112 1.90726 -2.6126
upperneck 8.65585 2.3952 0.730108
head 2.4475 1.07172 0.713185
rclavicle -9.69075e-016 1.59028e-015
rhumerus -17.9031 18.7549 -9.31394
rradius 20.5616
rwrist -25.0478
rhand -18.1582 -0.969697
rfingers 7.12502
rthumb 8.11761 -30.7938
lclavicle -9.69075e-016 1.59028e-015
lhumerus -22.3949 10.143 -5.40074
lradius 17.9623
lwrist 5.57632
lhand -22.2488 13.5105
lfingers 7.12502
lthumb 4.1685 43.4494
rfemur 3.73031 16.9077 21.5474
rtibia 21.8596
rfoot -25.5634 -20.6769
rtoes -15.3709
lfemur -3.26138 -12.2732 -16.6466
ltibia 35.6235
lfoot -26.7418 11.2198
ltoes -15.5478
3567
root 1.37528 17.5538 0.204189 -1044.31 -85.7267 -41.9403
lowerback 8.02884 -1.15209 2.98042
upperback -0.24584 -1.29534 -0.738535
thorax -4.8469 -0.726807 -2.28736
lowerneck 1.45105 1.92344 -2.59004
upperneck 8.62274 2.41652 0.70147
head 2.42585 1.08245 0.699323
rclavicle 3.926e-015 -1.51076e-014
rhumerus -17.8526 18.7404 -9.32496
rradius 20.5493
rwrist -24.9905
rhand -18.204 -1.00433
rfingers 7.12502
rthumb 8.07341 -30.8301
lclavicle 3.926e-015 -1.51076e-014
lhumerus -22.4435 10.0924 -5.381
lradius 17.9843
lwrist 5.59609
lhand -22.3246 13.4493
lfingers 7.12502
lthumb 4.09531 43.3897
rfemur 3.72227 16.9092 21.5436
rtibia 21.8666
rfoot -25.5629 -20.6785
rtoes -15.37
lfemur -3.2664 -12.2601 -16.6446
ltibia 35.6211
lfoot -26.7336 11.2064
ltoes -15.5486
